<?xml version="1.0" encoding="UTF-8" standalone="no"?>
<!-- Created with Inkscape (http://www.inkscape.org/) -->

<svg
   xmlns:dc="http://purl.org/dc/elements/1.1/"
   xmlns:cc="http://creativecommons.org/ns#"
   xmlns:rdf="http://www.w3.org/1999/02/22-rdf-syntax-ns#"
   xmlns:svg="http://www.w3.org/2000/svg"
   xmlns="http://www.w3.org/2000/svg"
   xmlns:sodipodi="http://sodipodi.sourceforge.net/DTD/sodipodi-0.dtd"
   xmlns:inkscape="http://www.inkscape.org/namespaces/inkscape"
   width="32"
   height="32"
   viewBox="0 0 31.999999 32.000001"
   id="svg2"
   version="1.1"
   inkscape:version="0.91 r13725"
   sodipodi:docname="base-icon.svg">
  <defs
     id="defs4" />
  <sodipodi:namedview
     id="base"
     pagecolor="#ffffff"
     bordercolor="#666666"
     borderopacity="1.0"
     inkscape:pageopacity="0.0"
     inkscape:pageshadow="2"
     inkscape:zoom="28.71875"
     inkscape:cx="16"
     inkscape:cy="16"
     inkscape:document-units="px"
     inkscape:current-layer="layer2"
     showgrid="false"
     units="px"
     fit-margin-top="0"
     fit-margin-left="0"
     fit-margin-right="0"
     fit-margin-bottom="0"
     inkscape:window-width="1855"
     inkscape:window-height="1056"
     inkscape:window-x="65"
     inkscape:window-y="24"
     inkscape:window-maximized="1" />
  <metadata
     id="metadata7">
    <rdf:RDF>
      <cc:Work
         rdf:about="">
        <dc:format>image/svg+xml</dc:format>
        <dc:type
           rdf:resource="http://purl.org/dc/dcmitype/StillImage" />
        <dc:title></dc:title>
      </cc:Work>
    </rdf:RDF>
  </metadata>
  <g
     inkscape:label="Layer 1"
     inkscape:groupmode="layer"
     id="layer1"
     transform="translate(0,-1020.3622)">
    <rect
       style="opacity:0.98000004;fill:#509dda;fill-opacity:1;stroke:none;stroke-width:5;stroke-linecap:square;stroke-linejoin:round;stroke-miterlimit:4;stroke-dasharray:none;stroke-dashoffset:0;stroke-opacity:1"
       id="rect4137"
       width="32"
       height="32"
       x="-9.5367432e-07"
       y="1020.3622" />
  </g>
  <g
     inkscape:groupmode="layer"
     id="layer2"
     inkscape:label="Layer 2">
    <g
       transform="translate(0.99988173,-1021.3622)"
       id="layer1-2"
       inkscape:label="Layer 1"
       style="fill:#ffffff;fill-opacity:1">
      <path
         d="m 17.564453,1027.248 c -1.034652,0.251 -2.003402,0.7743 -2.794922,1.545 l -0.134765,0.1308 c -1.893344,-0.7554 -4.012177,-0.8279 -5.837891,0.1446 -1.9397101,1.0326 -3.1012975,2.9382 -3.4160156,5.0097 -2.9236193,0.543 -5.12476759,2.9088 -5.35937502,5.8653 -0.24821342,3.1277 1.71986672,6.0148 4.70898442,6.8847 l 0.71875,0.209 0.4199218,-1.4394 -0.7207031,-0.209 c -2.3054136,-0.6709 -3.8260096,-2.8917 -3.6328125,-5.3262 0.1931843,-2.4345 2.0273416,-4.371 4.5097656,-4.6348 a 0.74970285,0.74970285 0 0 0 0.6679688,-0.6992 c 0.1090052,-1.7837 1.1444062,-3.4529 2.8066406,-4.3379 1.662039,-0.8853 3.703298,-0.8498 5.330078,0.092 1.626514,0.942 2.596964,2.6454 2.638672,4.4278 a 0.74970285,0.74970285 0 0 0 0.669922,0.7285 c 2.609869,0.2788 4.490135,2.3984 4.527344,4.9687 0.03722,2.5703 -1.796994,4.7542 -4.292969,5.1328 l -0.740235,0.1114 0.22461,1.4824 0.740234,-0.1113 c 3.23583,-0.4909 5.616142,-3.3369 5.56836,-6.6368 -0.01668,-1.1521 -0.412735,-2.1862 -0.955078,-3.1308 1.439027,-1.4631 2.137001,-3.5164 1.703124,-5.5469 -0.46306,-2.167 -2.055509,-3.9166 -4.162109,-4.5644 -1.05329,-0.324 -2.152848,-0.3467 -3.1875,-0.096 z m 0.353516,1.4551 c 0.776724,-0.1884 1.602082,-0.1714 2.394531,0.072 1.584913,0.4874 2.785768,1.8029 3.136719,3.4453 0.306421,1.434 -0.1862,2.8489 -1.119141,3.9375 -0.916999,-0.9612 -2.141615,-1.5987 -3.527344,-1.8613 -0.212133,-1.8299 -1.168037,-3.4628 -2.695312,-4.5918 0.54422,-0.4556 1.141999,-0.8398 1.810547,-1.002 z m 9.42347,11.8959 c -0.34859,0.3519 -0.909867,0.3519 -1.258457,0 l -1.150296,-1.1621 c -0.348606,-0.3519 -0.348606,-0.9188 -1.9e-5,-1.2708 0.348591,-0.352 0.909885,-0.352 1.258495,0 l 1.150296,1.1616 c 0.348588,0.3523 0.348569,0.919 -1.9e-5,1.2713 z m -15.670217,-15.9762 c 0.348609,-0.352 0.909904,-0.352 1.258493,0 l 1.150295,1.1619 c 0.34861,0.352 0.34861,0.9189 0,1.2709 -0.348587,0.352 -0.909866,0.352 -1.258475,0 l -1.150294,-1.1616 c -0.34859,-0.352 -0.348609,-0.919 -1.9e-5,-1.2712 z m 18.328592,8.4689 c 0,0.4978 -0.396885,0.8987 -0.889878,0.8987 l -1.626769,0 c -0.492991,0 -0.889876,-0.4009 -0.889876,-0.8987 0,-0.4979 0.396885,-0.8987 0.889876,-0.8987 l 1.626769,0 c 0.492993,0 0.889878,0.4008 0.889878,0.8987 z m -10.584659,-10.7295 c 0.492993,0 0.889877,0.4009 0.889877,0.8986 l 0,1.6429 c 0,0.498 -0.396884,0.8987 -0.889877,0.8987 -0.492991,0 -0.889876,-0.4007 -0.889876,-0.8987 l 0,-1.6429 c 0,-0.4977 0.396885,-0.8986 0.889876,-0.8986 z m 7.971209,3.4474 c 0.34861,0.3523 0.34861,0.9189 1.9e-5,1.2712 l -1.150298,1.1617 c -0.348605,0.352 -0.909883,0.352 -1.25849,0 -0.348591,-0.352 -0.348591,-0.919 1.9e-5,-1.2712 l 1.150294,-1.1617 c 0.34859,-0.352 0.909866,-0.352 1.258456,0 z m -11.109798,17.0835 c 0.486861,0.1639 0.726383,0.6841 0.537013,1.1661 l -0.480973,1.2236 c -0.189355,0.4817 -0.733769,0.7375 -1.22063,0.5734 -0.486861,-0.1638 -0.726372,-0.684 -0.537014,-1.166 l 0.480972,-1.2236 c 0.189383,-0.4817 0.733769,-0.7376 1.220632,-0.5735 z m -1.373835,4.5004 c 0.486861,0.1639 0.726372,0.6841 0.537013,1.1658 l -0.480971,1.2236 c -0.189383,0.482 -0.733771,0.7377 -1.220631,0.5735 -0.486862,-0.1639 -0.726384,-0.684 -0.537014,-1.1658 l 0.480971,-1.2236 c 0.189356,-0.482 0.733771,-0.7376 1.220632,-0.5735 z m -2.476047,-2.5013 c 0.48686,0.1639 0.726383,0.6841 0.537014,1.1658 l -0.48097,1.2237 c -0.189356,0.482 -0.73377,0.7375 -1.220632,0.5734 -0.48686,-0.1638 -0.72637,-0.684 -0.537012,-1.1657 l 0.480969,-1.2236 c 0.189383,-0.482 0.733769,-0.7377 1.220631,-0.5736 z m -1.721177,4.4572 c 0.486862,0.1638 0.726373,0.684 0.537014,1.1657 l -0.480973,1.2239 c -0.189383,0.4817 -0.733769,0.7377 -1.2206305,0.5736 -0.4868609,-0.1639 -0.726383,-0.6841 -0.5370134,-1.1661 l 0.4809719,-1.2237 c 0.189356,-0.4817 0.733769,-0.7375 1.220631,-0.5734 z m -2.0776273,-2.5371 c 0.486861,0.1638 0.7263723,0.684 0.5370135,1.1657 l -0.48098,1.2237 c -0.1893559,0.4819 -0.7337701,0.7376 -1.2206312,0.5735 -0.4868611,-0.1639 -0.7263722,-0.6841 -0.5370135,-1.1659 l 0.48098,-1.2236 c 0.189356,-0.482 0.7337701,-0.7375 1.2206312,-0.5734 z m 1.6925683,-4.2314 c 0.486861,0.1638 0.726375,0.684 0.537016,1.1657 l -0.480971,1.2237 c -0.189356,0.482 -0.7337705,0.7376 -1.2206315,0.5735 -0.4868611,-0.1638 -0.7263723,-0.6841 -0.5370135,-1.1658 l 0.4809691,-1.2237 c 0.1893561,-0.482 0.7337702,-0.7375 1.2206309,-0.5734 z"
         style="color:#000000;font-style:normal;font-variant:normal;font-weight:normal;font-stretch:normal;font-size:medium;line-height:normal;font-family:sans-serif;text-indent:0;text-align:start;text-decoration:none;text-decoration-line:none;text-decoration-style:solid;text-decoration-color:#000000;letter-spacing:normal;word-spacing:normal;text-transform:none;direction:ltr;block-progression:tb;writing-mode:lr-tb;baseline-shift:baseline;text-anchor:start;white-space:normal;clip-rule:nonzero;display:inline;overflow:visible;visibility:visible;opacity:1;isolation:auto;mix-blend-mode:normal;color-interpolation:sRGB;color-interpolation-filters:linearRGB;solid-color:#000000;solid-opacity:1;fill:#ffffff;fill-opacity:1;fill-rule:nonzero;stroke:none;stroke-width:1.49925578;stroke-linecap:square;stroke-linejoin:round;stroke-miterlimit:4;stroke-dasharray:none;stroke-dashoffset:0;stroke-opacity:1;color-rendering:auto;image-rendering:auto;shape-rendering:auto;text-rendering:auto;enable-background:accumulate"
         id="path5658-7"
         inkscape:connector-curvature="0" />
    </g>
  </g>
</svg>
